<mxfile host="app.diagrams.net" modified="2023-05-15T09:24:40.693Z" agent="Mozilla/5.0 (Windows NT 10.0; Win64; x64) AppleWebKit/537.36 (KHTML, like Gecko) Chrome/113.0.0.0 Safari/537.36" etag="Oe_r0TTTy3FahDkoBj3w" version="21.3.0" type="device">
  <diagram name="Page-1" id="LvFRkP2jbjNRPWQwuWhK">
    <mxGraphModel dx="1424" dy="1652" grid="1" gridSize="10" guides="1" tooltips="1" connect="1" arrows="1" fold="1" page="1" pageScale="1" pageWidth="827" pageHeight="1169" math="0" shadow="0">
      <root>
        <mxCell id="0" />
        <mxCell id="1" parent="0" />
        <mxCell id="oiDHuPEP-1dLJQXL8OJs-1" value="" style="whiteSpace=wrap;html=1;" vertex="1" parent="1">
          <mxGeometry x="30" width="770" height="1160" as="geometry" />
        </mxCell>
        <mxCell id="oiDHuPEP-1dLJQXL8OJs-2" value="NAVBAR" style="rounded=0;whiteSpace=wrap;html=1;" vertex="1" parent="1">
          <mxGeometry x="30" width="770" height="60" as="geometry" />
        </mxCell>
        <mxCell id="oiDHuPEP-1dLJQXL8OJs-3" value="IMG (Background-Image)" style="rounded=0;whiteSpace=wrap;html=1;fillColor=#d5e8d4;strokeColor=#82b366;" vertex="1" parent="1">
          <mxGeometry x="30" y="60" width="770" height="210" as="geometry" />
        </mxCell>
        <mxCell id="oiDHuPEP-1dLJQXL8OJs-4" value="BANDE Opacité&amp;nbsp;(Div collé en bas)" style="rounded=0;whiteSpace=wrap;html=1;fillColor=#d5e8d4;strokeColor=#82b366;" vertex="1" parent="1">
          <mxGeometry x="30" y="230" width="770" height="40" as="geometry" />
        </mxCell>
        <mxCell id="oiDHuPEP-1dLJQXL8OJs-5" value="MAIN" style="rounded=0;whiteSpace=wrap;html=1;" vertex="1" parent="1">
          <mxGeometry x="30" y="290" width="770" height="570" as="geometry" />
        </mxCell>
        <mxCell id="oiDHuPEP-1dLJQXL8OJs-6" value="FOOTER" style="rounded=0;whiteSpace=wrap;html=1;" vertex="1" parent="1">
          <mxGeometry x="30" y="910" width="770" height="250" as="geometry" />
        </mxCell>
        <mxCell id="oiDHuPEP-1dLJQXL8OJs-7" value="" style="rounded=0;whiteSpace=wrap;html=1;" vertex="1" parent="1">
          <mxGeometry x="30" y="320" width="470" height="540" as="geometry" />
        </mxCell>
        <mxCell id="oiDHuPEP-1dLJQXL8OJs-8" value="" style="rounded=1;whiteSpace=wrap;html=1;" vertex="1" parent="1">
          <mxGeometry x="520" y="290" width="280" height="570" as="geometry" />
        </mxCell>
        <mxCell id="oiDHuPEP-1dLJQXL8OJs-9" value="H1" style="rounded=0;whiteSpace=wrap;html=1;fillColor=#dae8fc;strokeColor=#6c8ebf;" vertex="1" parent="1">
          <mxGeometry x="40" y="330" width="120" height="30" as="geometry" />
        </mxCell>
        <mxCell id="oiDHuPEP-1dLJQXL8OJs-10" value="TEXTE" style="rounded=0;whiteSpace=wrap;html=1;fillColor=#ffe6cc;strokeColor=#d79b00;" vertex="1" parent="1">
          <mxGeometry x="30" y="390" width="470" height="440" as="geometry" />
        </mxCell>
        <mxCell id="oiDHuPEP-1dLJQXL8OJs-11" value="H2" style="rounded=0;whiteSpace=wrap;html=1;fillColor=#dae8fc;strokeColor=#6c8ebf;" vertex="1" parent="1">
          <mxGeometry x="600" y="310" width="120" height="30" as="geometry" />
        </mxCell>
        <mxCell id="oiDHuPEP-1dLJQXL8OJs-12" value="IMG" style="rounded=0;whiteSpace=wrap;html=1;fillColor=#d5e8d4;strokeColor=#82b366;" vertex="1" parent="1">
          <mxGeometry x="600" y="370" width="120" height="60" as="geometry" />
        </mxCell>
        <mxCell id="oiDHuPEP-1dLJQXL8OJs-13" value="DIV (contenant les icons)" style="rounded=0;whiteSpace=wrap;html=1;fillColor=#f8cecc;strokeColor=#b85450;" vertex="1" parent="1">
          <mxGeometry x="550" y="780" width="220" height="60" as="geometry" />
        </mxCell>
        <mxCell id="oiDHuPEP-1dLJQXL8OJs-14" value="TEXTE" style="rounded=0;whiteSpace=wrap;html=1;fillColor=#ffe6cc;strokeColor=#d79b00;" vertex="1" parent="1">
          <mxGeometry x="540" y="470" width="230" height="280" as="geometry" />
        </mxCell>
        <mxCell id="oiDHuPEP-1dLJQXL8OJs-15" value="NEWSLETTER" style="rounded=0;whiteSpace=wrap;html=1;fillColor=#f8cecc;strokeColor=#b85450;" vertex="1" parent="1">
          <mxGeometry x="50" y="970" width="210" height="150" as="geometry" />
        </mxCell>
        <mxCell id="oiDHuPEP-1dLJQXL8OJs-16" value="Galerie (H2 + Div contenant les IMG)" style="rounded=0;whiteSpace=wrap;html=1;fillColor=#f8cecc;strokeColor=#b85450;" vertex="1" parent="1">
          <mxGeometry x="289" y="970" width="231" height="150" as="geometry" />
        </mxCell>
        <mxCell id="oiDHuPEP-1dLJQXL8OJs-17" value="Partenaires (H2 + div contenant les IMG)" style="rounded=0;whiteSpace=wrap;html=1;fillColor=#f8cecc;strokeColor=#b85450;" vertex="1" parent="1">
          <mxGeometry x="550" y="970" width="231" height="150" as="geometry" />
        </mxCell>
        <mxCell id="oiDHuPEP-1dLJQXL8OJs-18" value="" style="endArrow=none;dashed=1;html=1;rounded=0;exitX=0;exitY=0;exitDx=0;exitDy=0;entryX=0.992;entryY=1.025;entryDx=0;entryDy=0;entryPerimeter=0;" edge="1" parent="1" source="oiDHuPEP-1dLJQXL8OJs-5" target="oiDHuPEP-1dLJQXL8OJs-4">
          <mxGeometry width="50" height="50" relative="1" as="geometry">
            <mxPoint x="60" y="300" as="sourcePoint" />
            <mxPoint x="110" y="250" as="targetPoint" />
          </mxGeometry>
        </mxCell>
        <mxCell id="oiDHuPEP-1dLJQXL8OJs-20" value="" style="endArrow=none;dashed=1;html=1;rounded=0;entryX=1;entryY=1;entryDx=0;entryDy=0;exitX=0;exitY=0;exitDx=0;exitDy=0;" edge="1" parent="1" source="oiDHuPEP-1dLJQXL8OJs-6" target="oiDHuPEP-1dLJQXL8OJs-5">
          <mxGeometry width="50" height="50" relative="1" as="geometry">
            <mxPoint x="320" y="910" as="sourcePoint" />
            <mxPoint x="370" y="860" as="targetPoint" />
          </mxGeometry>
        </mxCell>
        <mxCell id="oiDHuPEP-1dLJQXL8OJs-26" value="" style="endArrow=none;dashed=1;html=1;rounded=0;exitX=0.004;exitY=0.234;exitDx=0;exitDy=0;entryX=1;entryY=0;entryDx=0;entryDy=0;exitPerimeter=0;" edge="1" parent="1" source="oiDHuPEP-1dLJQXL8OJs-1" target="oiDHuPEP-1dLJQXL8OJs-5">
          <mxGeometry width="50" height="50" relative="1" as="geometry">
            <mxPoint x="40" y="300" as="sourcePoint" />
            <mxPoint x="804" y="281" as="targetPoint" />
          </mxGeometry>
        </mxCell>
        <mxCell id="oiDHuPEP-1dLJQXL8OJs-27" value="" style="endArrow=none;dashed=1;html=1;rounded=0;entryX=1;entryY=0.784;entryDx=0;entryDy=0;exitX=0;exitY=0.743;exitDx=0;exitDy=0;entryPerimeter=0;exitPerimeter=0;" edge="1" parent="1" source="oiDHuPEP-1dLJQXL8OJs-1" target="oiDHuPEP-1dLJQXL8OJs-1">
          <mxGeometry width="50" height="50" relative="1" as="geometry">
            <mxPoint x="40" y="920" as="sourcePoint" />
            <mxPoint x="810" y="870" as="targetPoint" />
          </mxGeometry>
        </mxCell>
      </root>
    </mxGraphModel>
  </diagram>
</mxfile>
